<?xml version="1.0" encoding="UTF-8"?>
<svg version="1.1" xmlns="http://www.w3.org/2000/svg" width="100" height="100">
<path d="M0 0 C33 0 66 0 100 0 C100 33 100 66 100 100 C67 100 34 100 0 100 C0 67 0 34 0 0 Z " fill="#C0D5D8" transform="translate(0,0)"/>
<path d="M0 0 C32.34 0 64.68 0 98 0 C98 14.19 98 28.38 98 43 C97.67 42.34 97.34 41.68 97 41 C94.69 41 92.38 41 90 41 C89.7834375 42.175625 89.7834375 42.175625 89.5625 43.375 C89 46 89 46 88 48 C78.5642462 48.65299334 70.52905844 45.3914116 62.87792969 39.90234375 C57.90220788 34.86193497 58.0168311 27.07089362 57.97387695 20.35839844 C57.98249756 19.58012695 57.99111816 18.80185547 58 18 C58 16.02 58 14.04 58 12 C51.73 12 45.46 12 39 12 C38.92265625 13.73507812 38.8453125 15.47015625 38.765625 17.2578125 C37.55981597 35.3462744 37.55981597 35.3462744 33.33984375 39.8203125 C30.25313833 41.22023095 27.26822503 42.12644517 24 43 C22.12707943 44.30545156 22.12707943 44.30545156 20.6875 45.8125 C17.40154354 48.48711572 15.18914909 48.8419189 11 49 C10.01 48.67 9.02 48.34 8 48 C7.67 46.35 7.34 44.7 7 43 C4.69 43 2.38 43 0 43 C0 28.81 0 14.62 0 0 Z " fill="#1F3135" transform="translate(1,0)"/>
<path d="M0 0 C0.33 0 0.66 0 1 0 C1 15.51 1 31.02 1 47 C-31.34 47 -63.68 47 -97 47 C-97 36.77 -97 26.54 -97 16 C-96.34 16.33 -95.68 16.66 -95 17 C-95 18.32 -95 19.64 -95 21 C-93.35 21 -91.7 21 -90 21 C-90 20.34 -90 19.68 -90 19 C-87.52009745 19.30737661 -85.04119265 19.62064083 -82.5625 19.9375 C-81.85544922 20.02451172 -81.14839844 20.11152344 -80.41992188 20.20117188 C-75.11328125 20.88671875 -75.11328125 20.88671875 -74 22 C-72.35892758 22.20839015 -70.71143707 22.36751725 -69.0625 22.5 C-64.21955403 22.89022298 -64.21955403 22.89022298 -62 24 C-60.9296875 26.06640625 -60.9296875 26.06640625 -59.875 28.5625 C-59.52179687 29.38878906 -59.16859375 30.21507813 -58.8046875 31.06640625 C-58.40636719 32.02353516 -58.40636719 32.02353516 -58 33 C-55.58325776 33.02705308 -53.1668206 33.04686438 -50.75 33.0625 C-49.72712891 33.07506836 -49.72712891 33.07506836 -48.68359375 33.08789062 C-45.30657446 33.10428392 -42.22708361 33.05628768 -39 32 C-39 31.34 -39 30.68 -39 30 C-38.34 29.67 -37.68 29.34 -37 29 C-36.27306096 27.02111039 -35.60183749 25.02045442 -35 23 C-34.17757812 22.96261719 -33.35515625 22.92523438 -32.5078125 22.88671875 C-26.03184454 22.50533957 -20.36616459 21.68253042 -14.21875 19.63671875 C-9.55964541 18.29968698 -5.62165021 18.84458745 -1 20 C-0.67 13.4 -0.34 6.8 0 0 Z " fill="#1E292C" transform="translate(98,53)"/>
<path d="M0 0 C4.29 0 8.58 0 13 0 C14.65715084 4.97145253 15.33507975 8.78187469 15.5 13.875 C15.63444555 17.97954369 15.87485039 21.56723075 17.0234375 25.5390625 C18.77618666 32.00648504 18.20774394 38.85238346 18.125 45.5 C18.11495069 46.90884781 18.10582829 48.31770255 18.09765625 49.7265625 C18.07419969 53.1512205 18.04137384 56.57551939 18 60 C17.34 60 16.68 60 16 60 C16 61.98 16 63.96 16 66 C15.34 66 14.68 66 14 66 C14.01047363 64.97229492 14.02094727 63.94458984 14.03173828 62.88574219 C14.06836 59.01663801 14.0910514 55.14754863 14.10986328 51.27832031 C14.11982596 49.61423147 14.13340102 47.95015969 14.15087891 46.28613281 C14.24067217 37.50752062 14.14440876 29.15538197 12.44970703 20.50292969 C11.82443212 17.02284372 11.80432234 13.78388298 11.875 10.25 C11.89304688 9.05890625 11.91109375 7.8678125 11.9296875 6.640625 C11.95289063 5.76921875 11.97609375 4.8978125 12 4 C8.37 4 4.74 4 1 4 C1.01160156 4.87140625 1.02320313 5.7428125 1.03515625 6.640625 C1.19402985 27.6119403 1.19402985 27.6119403 -1 32 C-1.24348898 35.47309407 -1.19005245 38.95681276 -1.1875 42.4375 C-1.18741943 43.4385376 -1.18733887 44.4395752 -1.18725586 45.47094727 C-1.13523981 52.19415866 -0.56530259 58.45201664 1 65 C1.37585898 67.32949959 1.68812085 69.66090634 2 72 C0.02 72 -1.96 72 -4 72 C-7 66.375 -7 66.375 -7 63 C-8.485 62.505 -8.485 62.505 -10 62 C-9.67 58.7 -9.34 55.4 -9 52 C-14.94 51.67 -20.88 51.34 -27 51 C-27 52.65 -27 54.3 -27 56 C-29.31 55.34 -31.62 54.68 -34 54 C-34 48.72 -34 43.44 -34 38 C-32.845 38 -31.69 38 -30.5 38 C-23.8136259 37.32601349 -18.21272613 33.81686528 -12.37890625 30.71484375 C-9 29 -9 29 -7 29 C-7 28.34 -7 27.68 -7 27 C-6.34 27 -5.68 27 -5 27 C-4.49350216 23.49037336 -3.99744873 19.9805975 -3.53515625 16.46484375 C-3.37917969 15.30082031 -3.22320312 14.13679688 -3.0625 12.9375 C-2.90910156 11.77089844 -2.75570312 10.60429687 -2.59765625 9.40234375 C-2 6 -2 6 0 0 Z " fill="#CAD9DC" transform="translate(43,14)"/>
<path d="M0 0 C3.63 0 7.26 0 11 0 C11.04898438 0.87140625 11.09796875 1.7428125 11.1484375 2.640625 C11.22320312 3.83171875 11.29796875 5.0228125 11.375 6.25 C11.44460937 7.41015625 11.51421875 8.5703125 11.5859375 9.765625 C11.84283868 13.05267357 12.4087805 16.21578463 13.02734375 19.453125 C14.22805786 26.42339068 14.26819681 33.31182548 14.20581055 40.35742188 C14.18728757 42.5248568 14.18530344 44.69186828 14.18554688 46.859375 C14.14279163 58.97434907 14.14279163 58.97434907 13 62 C12.01 62.495 12.01 62.495 11 63 C10.67 64.65 10.34 66.3 10 68 C5.38 68.33 0.76 68.66 -4 69 C-4 68.67 -4 68.34 -4 68 C-2.35 68 -0.7 68 1 68 C0.69255859 67.05640625 0.69255859 67.05640625 0.37890625 66.09375 C0.10949219 65.2378125 -0.15992188 64.381875 -0.4375 63.5 C-0.70433594 62.6646875 -0.97117188 61.829375 -1.24609375 60.96875 C-3.12765022 53.5595121 -3.15519104 46.22307947 -3.125 38.625 C-3.12886719 37.62855469 -3.13273437 36.63210937 -3.13671875 35.60546875 C-3.13542969 34.65542969 -3.13414063 33.70539062 -3.1328125 32.7265625 C-3.13168457 31.86627441 -3.13055664 31.00598633 -3.12939453 30.11962891 C-3 28 -3 28 -2 26 C-1.77760311 24.04356527 -1.60784146 22.08102275 -1.46484375 20.1171875 C-1.37783203 18.95058594 -1.29082031 17.78398438 -1.20117188 16.58203125 C-1.11416016 15.35871094 -1.02714844 14.13539062 -0.9375 12.875 C-0.84662109 11.64394531 -0.75574219 10.41289062 -0.66210938 9.14453125 C-0.43764997 6.09660885 -0.21711458 3.04845297 0 0 Z " fill="#38B7EF" transform="translate(44,18)"/>
<path d="M0 0 C0.33 0 0.66 0 1 0 C1 14.19 1 28.38 1 43 C3.31 43 5.62 43 8 43 C8.33 44.65 8.66 46.3 9 48 C15.9391264 48.41634758 19.69123451 46.92397124 25 42.5 C28.76402912 39.36330907 32.00950166 37 37 37 C37.33 32.38 37.66 27.76 38 23 C38.33 23 38.66 23 39 23 C39.87557031 29.54311329 40.3548854 34.76647981 38 41 C37.34 41 36.68 41 36 41 C36 41.66 36 42.32 36 43 C33.20321149 44.5307023 30.38556094 46.01839355 27.5625 47.5 C26.77939453 47.92925781 25.99628906 48.35851563 25.18945312 48.80078125 C19.47687958 51.76285642 15.42558506 52.46310523 9 52 C9 57.28 9 62.56 9 68 C10.98 68.33 12.96 68.66 15 69 C15.33 67.68 15.66 66.36 16 65 C18.62506802 64.97309156 21.24986173 64.95320596 23.875 64.9375 C24.62136719 64.92912109 25.36773438 64.92074219 26.13671875 64.91210938 C31.7734375 64.88671875 31.7734375 64.88671875 34 66 C33.67 69.3 33.34 72.6 33 76 C27.35119019 76.17117605 23.33239546 75.95883915 18 74 C14.68047854 73.25899069 11.3438271 72.62118527 8 72 C8 72.66 8 73.32 8 74 C6.35 74 4.7 74 3 74 C2.67 72.68 2.34 71.36 2 70 C1.67 79.9 1.34 89.8 1 100 C0.67 100 0.34 100 0 100 C0 67 0 34 0 0 Z " fill="#8AA9AF" transform="translate(0,0)"/>
<path d="M0 0 C0.33 0 0.66 0 1 0 C1 33 1 66 1 100 C0.67 100 0.34 100 0 100 C-0.33 88.78 -0.66 77.56 -1 66 C-1.33 68.31 -1.66 70.62 -2 73 C-6.62 73 -11.24 73 -16 73 C-16 71.68 -16 70.36 -16 69 C-12.535 68.505 -12.535 68.505 -9 68 C-9 62.72 -9 57.44 -9 52 C-10.30195312 51.92523438 -11.60390625 51.85046875 -12.9453125 51.7734375 C-18.27057448 51.17896055 -22.25438294 49.2323482 -26.875 46.625 C-27.62007812 46.22539063 -28.36515625 45.82578125 -29.1328125 45.4140625 C-32.54096186 43.55061393 -35.33252836 41.86042457 -38 39 C-35 38 -35 38 -33.1940918 38.71264648 C-32.20662964 39.28607788 -32.20662964 39.28607788 -31.19921875 39.87109375 C-30.46896484 40.28037109 -29.73871094 40.68964844 -28.98632812 41.11132812 C-27.46425788 41.98939584 -25.94340432 42.86957627 -24.42382812 43.75195312 C-20.03696481 46.20536132 -17.15982862 47.4449474 -12 47 C-11.34 47.33 -10.68 47.66 -10 48 C-9.34 45.69 -8.68 43.38 -8 41 C-5.69 41 -3.38 41 -1 41 C-0.67 27.47 -0.34 13.94 0 0 Z " fill="#7198A8" transform="translate(99,0)"/>
<path d="M0 0 C4.29 0 8.58 0 13 0 C14.65715084 4.97145253 15.33507975 8.78187469 15.5 13.875 C15.63444555 17.97954369 15.87485039 21.56723075 17.0234375 25.5390625 C18.77618666 32.00648504 18.20774394 38.85238346 18.125 45.5 C18.11495069 46.90884781 18.10582829 48.31770255 18.09765625 49.7265625 C18.07419969 53.1512205 18.04137384 56.57551939 18 60 C17.34 60 16.68 60 16 60 C16 61.98 16 63.96 16 66 C15.34 66 14.68 66 14 66 C14.01047363 64.97229492 14.02094727 63.94458984 14.03173828 62.88574219 C14.06836 59.01663801 14.0910514 55.14754863 14.10986328 51.27832031 C14.11982596 49.61423147 14.13340102 47.95015969 14.15087891 46.28613281 C14.24067217 37.50752062 14.14440876 29.15538197 12.44970703 20.50292969 C11.82443212 17.02284372 11.80432234 13.78388298 11.875 10.25 C11.89304687 9.05890625 11.91109375 7.8678125 11.9296875 6.640625 C11.95289062 5.76921875 11.97609375 4.8978125 12 4 C8.37 4 4.74 4 1 4 C1.01160156 4.87140625 1.02320313 5.7428125 1.03515625 6.640625 C1.19402985 27.6119403 1.19402985 27.6119403 -1 32 C-1.24348981 35.47310596 -1.1897694 38.95680193 -1.1875 42.4375 C-1.18814453 43.4363623 -1.18878906 44.43522461 -1.18945312 45.46435547 C-1.14647393 51.45116213 -0.8360681 57.12977084 0.5625 62.9765625 C1 65 1 65 1 69 C-0.875 68.5 -0.875 68.5 -3 67 C-5.00516099 60.81625176 -5.31453028 55.09093356 -5.25 48.625 C-5.24395752 47.64055908 -5.23791504 46.65611816 -5.23168945 45.6418457 C-5.13036354 37.80781708 -4.73711342 30.00210553 -4.1875 22.1875 C-4.08260254 20.58865967 -4.08260254 20.58865967 -3.97558594 18.95751953 C-3.44593916 12.25463907 -2.14476648 6.37553871 0 0 Z " fill="#C5E7F2" transform="translate(43,14)"/>
<path d="M0 0 C5.81596309 0.83085187 8.24005071 1.35686574 13.0625 4 C17.43047744 6.38775113 19.8603618 7.14339363 25 8 C25 13.28 25 18.56 25 24 C22.69 24.33 20.38 24.66 18 25 C18 24.01 18 23.02 18 22 C12.39 22 6.78 22 1 22 C0.67 14.74 0.34 7.48 0 0 Z " fill="#CFDEE2" transform="translate(65,44)"/>
<path d="M0 0 C3.63 0 7.26 0 11 0 C11.07347656 1.2375 11.07347656 1.2375 11.1484375 2.5 C11.74563556 11.7256803 12.77465014 20.83961757 14 30 C13.67 29.34 13.34 28.68 13 28 C7.72 28.33 2.44 28.66 -3 29 C-2.505 27.515 -2.505 27.515 -2 26 C-1.78323842 24.01031749 -1.61090121 22.01564981 -1.46484375 20.01953125 C-1.37783203 18.85615234 -1.29082031 17.69277344 -1.20117188 16.49414062 C-1.11416016 15.27919922 -1.02714844 14.06425781 -0.9375 12.8125 C-0.84662109 11.58595703 -0.75574219 10.35941406 -0.66210938 9.09570312 C-0.43797842 6.06403705 -0.2174188 3.03215363 0 0 Z " fill="#40BAF1" transform="translate(44,18)"/>
<path d="M0 0 C0.33 0 0.66 0 1 0 C1 14.19 1 28.38 1 43 C3.31 43 5.62 43 8 43 C9.10961564 46.51191483 9.03443358 49.63334228 8.87890625 53.296875 C8.83056641 54.50214844 8.78222656 55.70742188 8.73242188 56.94921875 C8.67634766 58.20347656 8.62027344 59.45773438 8.5625 60.75 C8.51029297 62.01972656 8.45808594 63.28945313 8.40429688 64.59765625 C8.27468016 67.73202407 8.13971529 70.86606874 8 74 C6.35 74 4.7 74 3 74 C2.67 72.68 2.34 71.36 2 70 C1.67 79.9 1.34 89.8 1 100 C0.67 100 0.34 100 0 100 C0 67 0 34 0 0 Z " fill="#6995A9" transform="translate(0,0)"/>
<path d="M0 0 C0.66 0 1.32 0 2 0 C3.0625 1.8125 3.0625 1.8125 4 4 C3.67 4.99 3.34 5.98 3 7 C3.495 7.99 3.495 7.99 4 9 C4.07033769 10.87379605 4.0843022 12.75001102 4.0625 14.625 C4.05347656 15.62789062 4.04445312 16.63078125 4.03515625 17.6640625 C4.02355469 18.43492188 4.01195312 19.20578125 4 20 C3.01 20.33 2.02 20.66 1 21 C0.65981837 19.29301718 0.3281911 17.58432867 0 15.875 C-0.185625 14.92367188 -0.37125 13.97234375 -0.5625 12.9921875 C-1 10 -1 10 -1 4 C-7.27 4 -13.54 4 -20 4 C-20.14695312 5.76988281 -20.29390625 7.53976563 -20.4453125 9.36328125 C-20.67040236 11.67983106 -20.89704563 13.99623031 -21.125 16.3125 C-21.2178125 17.47974609 -21.310625 18.64699219 -21.40625 19.84960938 C-21.73489411 23.0173734 -22.09543488 25.94551233 -23 29 C-25.9921875 31.35546875 -25.9921875 31.35546875 -29 32 C-29.66 31.67 -30.32 31.34 -31 31 C-30.69964844 30.44570313 -30.39929688 29.89140625 -30.08984375 29.3203125 C-29.51943359 28.23363281 -29.51943359 28.23363281 -28.9375 27.125 C-28.55464844 26.40570313 -28.17179687 25.68640625 -27.77734375 24.9453125 C-27.52082031 24.30335937 -27.26429687 23.66140625 -27 23 C-27.33 22.34 -27.66 21.68 -28 21 C-28.09608608 19.16871229 -28.12982579 17.33380041 -28.125 15.5 C-28.12886719 14.03046875 -28.12886719 14.03046875 -28.1328125 12.53125 C-28 10 -28 10 -27 8 C-26.01 7.67 -25.02 7.34 -24 7 C-24 6.34 -24 5.68 -24 5 C-24.66 4.67 -25.32 4.34 -26 4 C-25.67 3.01 -25.34 2.02 -25 1 C-24.02933594 1.15339844 -23.05867188 1.30679687 -22.05859375 1.46484375 C-17.73780106 2.08209985 -13.41858682 2.33480395 -9.0625 2.5625 C-8.28326172 2.60568359 -7.50402344 2.64886719 -6.70117188 2.69335938 C-4.80092883 2.79828077 -2.90048331 2.8995245 -1 3 C-0.67 2.01 -0.34 1.02 0 0 Z " fill="#264447" transform="translate(60,8)"/>
<path d="M0 0 C0 0.33 0 0.66 0 1 C-1.65 1 -3.3 1 -5 1 C-5.33 2.32 -5.66 3.64 -6 5 C-7.98 5 -9.96 5 -12 5 C-12 5.66 -12 6.32 -12 7 C-13.10408203 7.07347656 -13.10408203 7.07347656 -14.23046875 7.1484375 C-15.20628906 7.22320312 -16.18210937 7.29796875 -17.1875 7.375 C-18.15042969 7.44460937 -19.11335938 7.51421875 -20.10546875 7.5859375 C-23.05982835 8.00855844 -25.34046435 8.65150305 -28 10 C-29.36078035 12.52372901 -29.36078035 12.52372901 -30 15 C-31.32 15 -32.64 15 -34 15 C-33.938125 16.11375 -33.87625 17.2275 -33.8125 18.375 C-33.874375 19.57125 -33.93625 20.7675 -34 22 C-37.08888522 24.05925681 -37.70935927 24.2390374 -41.1875 24.125 C-42.445625 24.08375 -43.70375 24.0425 -45 24 C-45 23.01 -45 22.02 -45 21 C-44.34 21 -43.68 21 -43 21 C-43 20.01 -43 19.02 -43 18 C-44.32 17.67 -45.64 17.34 -47 17 C-47 16.34 -47 15.68 -47 15 C-46.39671875 14.93941406 -45.7934375 14.87882812 -45.171875 14.81640625 C-44.37265625 14.73261719 -43.5734375 14.64882812 -42.75 14.5625 C-41.96109375 14.48128906 -41.1721875 14.40007812 -40.359375 14.31640625 C-38.17635361 14.02365007 -36.1226818 13.57935581 -34 13 C-34 12.34 -34 11.68 -34 11 C-33.34 10.67 -32.68 10.34 -32 10 C-31.27306096 8.02111039 -30.60183749 6.02045442 -30 4 C-29.17757812 3.96261719 -28.35515625 3.92523438 -27.5078125 3.88671875 C-21.03805735 3.50570546 -15.3711017 2.69844273 -9.234375 0.6328125 C-6.04471134 -0.27055378 -3.29247424 -0.21472658 0 0 Z " fill="#214045" transform="translate(93,72)"/>
<path d="M0 0 C2.62506802 -0.02690844 5.24986173 -0.04679404 7.875 -0.0625 C8.62136719 -0.07087891 9.36773437 -0.07925781 10.13671875 -0.08789062 C15.7734375 -0.11328125 15.7734375 -0.11328125 18 1 C17.67 4.3 17.34 7.6 17 11 C10.40962648 11.30892376 6.04564605 10.63810009 0 8 C0 5.36 0 2.72 0 0 Z " fill="#DDC64A" transform="translate(16,65)"/>
<path d="M0 0 C2.64 0.33 5.28 0.66 8 1 C8 6.28 8 11.56 8 17 C5.69 17.33 3.38 17.66 1 18 C1 17.01 1 16.02 1 15 C-2.96 15 -6.92 15 -11 15 C-11 14.34 -11 13.68 -11 13 C-7.7 13 -4.4 13 -1 13 C-1.020625 11.411875 -1.04125 9.82375 -1.0625 8.1875 C-1.10335303 5.04181692 -1.00496852 3.01490557 0 0 Z " fill="#CADAE0" transform="translate(82,51)"/>
<path d="M0 0 C5.61 0 11.22 0 17 0 C17 2.31 17 4.62 17 7 C11.06818762 10.09485864 6.67959493 10.2745039 0 10 C0 6.7 0 3.4 0 0 Z " fill="#DFC334" transform="translate(66,66)"/>
<path d="M0 0 C1.28132813 0.00902344 2.56265625 0.01804688 3.8828125 0.02734375 C4.87023438 0.03894531 5.85765625 0.05054688 6.875 0.0625 C7.875 2.0625 7.875 2.0625 7.875 9.0625 C2.265 9.0625 -3.345 9.0625 -9.125 9.0625 C-9.125 6.4225 -9.125 3.7825 -9.125 1.0625 C-6.12186252 -0.43906874 -3.33432478 -0.03031204 0 0 Z " fill="#3D4462" transform="translate(50.125,45.9375)"/>
<path d="M0 0 C4.53256066 1.34549777 8.25434724 3.2168654 12.3125 5.625 C18.03620033 8.79827716 21.55015669 9.64498433 28 9 C29 10 29 10 29.11352539 12.31665039 C29.10828857 13.31688232 29.10305176 14.31711426 29.09765625 15.34765625 C29.09443359 16.42724609 29.09121094 17.50683594 29.08789062 18.61914062 C29.07951172 19.75544922 29.07113281 20.89175781 29.0625 22.0625 C29.05798828 23.20267578 29.05347656 24.34285156 29.04882812 25.51757812 C29.03699747 28.34510351 29.0205141 31.1725264 29 34 C26.36 34.33 23.72 34.66 21 35 C21 33.68 21 32.36 21 31 C24.465 30.505 24.465 30.505 28 30 C28 24.72 28 19.44 28 14 C26.69804688 13.92523438 25.39609375 13.85046875 24.0546875 13.7734375 C18.72942552 13.17896055 14.74561706 11.2323482 10.125 8.625 C9.37992188 8.22539063 8.63484375 7.82578125 7.8671875 7.4140625 C4.45903814 5.55061393 1.66747164 3.86042457 -1 1 C-0.67 0.67 -0.34 0.34 0 0 Z " fill="#86A5AD" transform="translate(62,38)"/>
<path d="M0 0 C6.27 0 12.54 0 19 0 C22.42857143 18 22.42857143 18 22 27 C21.01 27 20.02 27 19 27 C17.79218794 23.37656382 17.68389281 19.90501895 17.5 16.125 C17.27945153 11.64051447 16.88533983 7.42669917 16 3 C11.71 2.67 7.42 2.34 3 2 C2.01 7.94 1.02 13.88 0 20 C-0.33 20 -0.66 20 -1 20 C-1.02696009 17.2291017 -1.04681952 14.4584655 -1.0625 11.6875 C-1.07087891 10.90181641 -1.07925781 10.11613281 -1.08789062 9.30664062 C-1.09111328 8.54931641 -1.09433594 7.79199219 -1.09765625 7.01171875 C-1.10289307 6.31522217 -1.10812988 5.61872559 -1.11352539 4.90112305 C-1 3 -1 3 0 0 Z " fill="#C2CCD2" transform="translate(40,12)"/>
<path d="M0 0 C3.63 0 7.26 0 11 0 C11 1.98 11 3.96 11 6 C10.67 5.01 10.34 4.02 10 3 C7.69 3.33 5.38 3.66 3 4 C2.01 11.26 1.02 18.52 0 26 C3.96 26 7.92 26 12 26 C12 23.36 12 20.72 12 18 C12.33 18 12.66 18 13 18 C13.33 21.96 13.66 25.92 14 30 C13.67 29.34 13.34 28.68 13 28 C7.72 28.33 2.44 28.66 -3 29 C-2.505 27.515 -2.505 27.515 -2 26 C-1.78323842 24.01031749 -1.61090121 22.01564981 -1.46484375 20.01953125 C-1.37783203 18.85615234 -1.29082031 17.69277344 -1.20117188 16.49414062 C-1.11416016 15.27919922 -1.02714844 14.06425781 -0.9375 12.8125 C-0.84662109 11.58595703 -0.75574219 10.35941406 -0.66210938 9.09570312 C-0.43797842 6.06403705 -0.2174188 3.03215363 0 0 Z " fill="#51B6D9" transform="translate(44,18)"/>
<path d="M0 0 C1.98 0.99 1.98 0.99 4 2 C4 2.99 4 3.98 4 5 C5.65 5 7.3 5 9 5 C9.33 5.99 9.66 6.98 10 8 C11.65 8 13.3 8 15 8 C15 8.99 15 9.98 15 11 C17.31 11.33 19.62 11.66 22 12 C22 13.65 22 15.3 22 17 C16.80771145 16.42770367 12.6896297 13.9017839 8.1875 11.4375 C7.00510742 10.80038086 7.00510742 10.80038086 5.79882812 10.15039062 C3.8626622 9.10603446 1.92994633 8.0557923 0 7 C0 4.69 0 2.38 0 0 Z " fill="#395C62" transform="translate(62,31)"/>
<path d="M0 0 C1.98 0.66 3.96 1.32 6 2 C6 1.34 6 0.68 6 0 C7.65 0 9.3 0 11 0 C11.66 1.32 12.32 2.64 13 4 C9.12302691 7.64200502 6.30679922 8.70517782 1 9 C0.01 8.67 -0.98 8.34 -2 8 C-2.33 6.35 -2.66 4.7 -3 3 C-5.31 3 -7.62 3 -10 3 C-10 2.67 -10 2.34 -10 2 C-6.7 1.67 -3.4 1.34 0 1 C0 0.67 0 0.34 0 0 Z " fill="#224045" transform="translate(11,40)"/>
<path d="M0 0 C2.97 0.495 2.97 0.495 6 1 C6 7.93 6 14.86 6 22 C4.68 22 3.36 22 2 22 C1.34 14.74 0.68 7.48 0 0 Z " fill="#33A6D9" transform="translate(2,46)"/>
<path d="M0 0 C6.875 0.875 6.875 0.875 8 2 C9.64107242 2.20839015 11.28856293 2.36751725 12.9375 2.5 C17.78044597 2.89022298 17.78044597 2.89022298 20 4 C23 10.23076923 23 10.23076923 23 14 C20.6875 13.875 20.6875 13.875 18 13 C17.67 12.05125 17.34 11.1025 17 10.125 C14.44338245 6.13028508 12.96963535 6.18745522 8.4375 5.1875 C7.28121094 4.97480469 6.12492187 4.76210937 4.93359375 4.54296875 C2 4 2 4 0 3 C0 2.01 0 1.02 0 0 Z " fill="#324846" transform="translate(16,73)"/>
<path d="M0 0 C0 0.66 0 1.32 0 2 C0.66 2 1.32 2 2 2 C2.1875 4.875 2.1875 4.875 2 8 C-1.08888522 10.05925681 -1.70935927 10.2390374 -5.1875 10.125 C-7.0746875 10.063125 -7.0746875 10.063125 -9 10 C-9 9.01 -9 8.02 -9 7 C-8.34 7 -7.68 7 -7 7 C-7 6.01 -7 5.02 -7 4 C-8.32 3.67 -9.64 3.34 -11 3 C-11 2.34 -11 1.68 -11 1 C-9.54182203 0.83197949 -8.0834516 0.66562857 -6.625 0.5 C-5.81289063 0.4071875 -5.00078125 0.314375 -4.1640625 0.21875 C-2 0 -2 0 0 0 Z " fill="#1F3D42" transform="translate(57,86)"/>
<path d="M0 0 C5.61 0 11.22 0 17 0 C17.0269741 3.41671948 17.04682672 6.83322589 17.0625 10.25 C17.07087891 11.21808594 17.07925781 12.18617187 17.08789062 13.18359375 C17.09272461 14.58544922 17.09272461 14.58544922 17.09765625 16.015625 C17.10551147 17.30388184 17.10551147 17.30388184 17.11352539 18.61816406 C17.00280754 20.94109606 16.84444936 22.83002839 16 25 C15.01 25.33 14.02 25.66 13 26 C12.957279 24.33388095 12.95936168 22.66617115 13 21 C13.33 20.67 13.66 20.34 14 20 C14.22571184 18.58879098 14.39388349 17.16823957 14.53515625 15.74609375 C14.66567383 14.46508789 14.66567383 14.46508789 14.79882812 13.15820312 C14.9293457 11.81145508 14.9293457 11.81145508 15.0625 10.4375 C15.15337891 9.53580078 15.24425781 8.63410156 15.33789062 7.70507812 C15.56253923 5.47041566 15.78305769 3.23542161 16 1 C14.741875 1.144375 13.48375 1.28875 12.1875 1.4375 C11.12595703 1.55931641 11.12595703 1.55931641 10.04296875 1.68359375 C7.80603607 1.97170735 7.80603607 1.97170735 5 3 C2.8125 2.0625 2.8125 2.0625 1 1 C1.165 2.0725 1.33 3.145 1.5 4.25 C2.21160726 9.82258642 2.08411046 15.39263574 2 21 C1.67 21 1.34 21 1 21 C-0.10390686 13.9625938 -0.07419234 7.1224651 0 0 Z " fill="#53B6DC" transform="translate(41,55)"/>
<path d="M0 0 C0.33 0 0.66 0 1 0 C1 8.91 1 17.82 1 27 C-2.63 26.67 -6.26 26.34 -10 26 C-9.34 25.67 -8.68 25.34 -8 25 C-8 24.34 -8 23.68 -8 23 C-8.66 23 -9.32 23 -10 23 C-10 22.01 -10 21.02 -10 20 C-7.03 20 -4.06 20 -1 20 C-0.67 13.4 -0.34 6.8 0 0 Z " fill="#162D35" transform="translate(98,53)"/>
<path d="M0 0 C2.31 0 4.62 0 7 0 C6.01 0.495 6.01 0.495 5 1 C5 5.95 5 10.9 5 16 C5.66 16 6.32 16 7 16 C6.67 16.66 6.34 17.32 6 18 C4.02 17.34 2.04 16.68 0 16 C0 10.72 0 5.44 0 0 Z " fill="#AFCDD7" transform="translate(9,52)"/>
<path d="M0 0 C0.33 0 0.66 0 1 0 C1 3.3 1 6.6 1 10 C0.01 10 -0.98 10 -2 10 C-2.66 12.31 -3.32 14.62 -4 17 C-4.66 17 -5.32 17 -6 17 C-6 17.66 -6 18.32 -6 19 C-9.90028225 21.60018816 -13.47434569 21.15085514 -18 21 C-18 20.67 -18 20.34 -18 20 C-15.69 20 -13.38 20 -11 20 C-11 18.35 -11 16.7 -11 15 C-9.35 14.67 -7.7 14.34 -6 14 C-6 12.02 -6 10.04 -6 8 C-4.02 7.67 -2.04 7.34 0 7 C0 4.69 0 2.38 0 0 Z " fill="#B5C3BA" transform="translate(65,66)"/>
<path d="M0 0 C0.33 0 0.66 0 1 0 C1.05534912 0.59949463 1.11069824 1.19898926 1.16772461 1.81665039 C1.42253147 4.56543572 1.67999616 7.31396606 1.9375 10.0625 C2.02451172 11.00544922 2.11152344 11.94839844 2.20117188 12.91992188 C2.67642683 17.97170607 3.22789068 22.98476739 4 28 C2.0625 27.1875 2.0625 27.1875 0 26 C-0.99259618 23.02221146 -1.12891582 21.03757049 -1.1328125 17.9296875 C-1.13410156 16.95128906 -1.13539062 15.97289063 -1.13671875 14.96484375 C-1.13285156 13.94519531 -1.12898438 12.92554687 -1.125 11.875 C-1.12886719 10.84761719 -1.13273437 9.82023437 -1.13671875 8.76171875 C-1.13542969 7.78589844 -1.13414063 6.81007813 -1.1328125 5.8046875 C-1.13168457 4.90733887 -1.13055664 4.00999023 -1.12939453 3.08544922 C-1 1 -1 1 0 0 Z " fill="#B8EBF8" transform="translate(40,55)"/>
<path d="M0 0 C0.99 0 1.98 0 3 0 C2.86111494 3.27116732 2.71269508 6.541834 2.5625 9.8125 C2.50352539 11.2056543 2.50352539 11.2056543 2.44335938 12.62695312 C2.40146484 13.51962891 2.35957031 14.41230469 2.31640625 15.33203125 C2.27974854 16.15421143 2.24309082 16.9763916 2.20532227 17.82348633 C2 20 2 20 1 23 C0.34 23 -0.32 23 -1 23 C-1.02887512 19.35418313 -1.04675585 15.70839537 -1.0625 12.0625 C-1.07087891 11.02158203 -1.07925781 9.98066406 -1.08789062 8.90820312 C-1.09272461 7.42416992 -1.09272461 7.42416992 -1.09765625 5.91015625 C-1.10289307 4.99371338 -1.10812988 4.07727051 -1.11352539 3.13305664 C-1 1 -1 1 0 0 Z " fill="#35B0E4" transform="translate(93,45)"/>
<path d="M0 0 C0.33 0 0.66 0 1 0 C1.02465504 4.39656173 1.04283842 8.7930872 1.05493164 13.18969727 C1.05997121 14.68644918 1.06680287 16.18319616 1.07543945 17.67993164 C1.08752159 19.82699807 1.09323191 21.97399962 1.09765625 24.12109375 C1.10289307 25.4145874 1.10812988 26.70808105 1.11352539 28.04077148 C1 31 1 31 0 32 C-0.23701239 34.85877909 -0.42219182 37.69883297 -0.5625 40.5625 C-0.60568359 41.36880859 -0.64886719 42.17511719 -0.69335938 43.00585938 C-0.79975262 45.00368805 -0.90040888 47.0018207 -1 49 C-1.33 49 -1.66 49 -2 49 C-2.30715106 32.56033015 -1.48672818 16.37180327 0 0 Z " fill="#D6E7EF" transform="translate(40,24)"/>
<path d="M0 0 C0.33 0 0.66 0 1 0 C1.103125 1.11375 1.20625 2.2275 1.3125 3.375 C1.539375 4.57125 1.76625 5.7675 2 7 C2.99 7.66 3.98 8.32 5 9 C5.495 10.175625 5.99 11.35125 6.5 12.5625 C6.995 13.696875 7.49 14.83125 8 16 C8.99 16.33 9.98 16.66 11 17 C11 17.99 11 18.98 11 20 C9.02 20 7.04 20 5 20 C2 14.375 2 14.375 2 11 C1.01 10.67 0.02 10.34 -1 10 C-0.67 6.7 -0.34 3.4 0 0 Z " fill="#B4C1BE" transform="translate(34,66)"/>
<path d="M0 0 C0.66 0 1.32 0 2 0 C4.04937325 7.78273888 5.49155247 14.93489832 5 23 C4.01 23 3.02 23 2 23 C1.0699111 20.2097333 0.81301231 18.23470458 0.68359375 15.33203125 C0.64169922 14.43935547 0.59980469 13.54667969 0.55664062 12.62695312 C0.51732422 11.69818359 0.47800781 10.76941406 0.4375 9.8125 C0.39431641 8.87212891 0.35113281 7.93175781 0.30664062 6.96289062 C0.20061335 4.64207146 0.09854971 2.32114675 0 0 Z " fill="#C8CEC8" transform="translate(57,16)"/>
<path d="M0 0 C0 1.32 0 2.64 0 4 C-5.39460953 6.27141454 -10.26157749 6.20413361 -16 6 C-16 5.01 -16 4.02 -16 3 C-5.62642369 -0.44419134 -5.62642369 -0.44419134 0 0 Z " fill="#A79B34" transform="translate(82,70)"/>
<path d="M0 0 C1.98 0 3.96 0 6 0 C6 5.28 6 10.56 6 16 C4.68 16 3.36 16 2 16 C2 11.05 2 6.1 2 1 C1.34 0.67 0.68 0.34 0 0 Z " fill="#A3C9D5" transform="translate(84,52)"/>
<path d="M0 0 C2.31 0 4.62 0 7 0 C10.36863308 6.73726616 7.63441302 17.77222309 7 25 C6.67 25 6.34 25 6 25 C6 17.74 6 10.48 6 3 C4.68 3 3.36 3 2 3 C1.67 4.65 1.34 6.3 1 8 C0.01 7.01 -0.98 6.02 -2 5 C-1.34 3.35 -0.68 1.7 0 0 Z " fill="#296E88" transform="translate(91,41)"/>
<path d="M0 0 C0.66 0 1.32 0 2 0 C2 5.94 2 11.88 2 18 C1.34 18 0.68 18 0 18 C0 19.98 0 21.96 0 24 C-0.66 24 -1.32 24 -2 24 C-1.86184471 20.18718055 -1.71319438 16.37484283 -1.5625 12.5625 C-1.52318359 11.47388672 -1.48386719 10.38527344 -1.44335938 9.26367188 C-1.40146484 8.22919922 -1.35957031 7.19472656 -1.31640625 6.12890625 C-1.27974854 5.17056885 -1.24309082 4.21223145 -1.20532227 3.22485352 C-1 1 -1 1 0 0 Z " fill="#D5ECF6" transform="translate(59,56)"/>
<path d="M0 0 C2.31 0 4.62 0 7 0 C6.01 0.495 6.01 0.495 5 1 C4.835 1.66 4.67 2.32 4.5 3 C4.335 3.66 4.17 4.32 4 5 C3.01 5.495 3.01 5.495 2 6 C1.7525 6.825 1.505 7.65 1.25 8.5 C0.8375 9.325 0.425 10.15 0 11 C-3.125 11.8125 -3.125 11.8125 -6 12 C-6.33 11.01 -6.66 10.02 -7 9 C-6.01 9 -5.02 9 -4 9 C-4 8.34 -4 7.68 -4 7 C-3.34 6.67 -2.68 6.34 -2 6 C-1.27306096 4.02111039 -0.60183749 2.02045442 0 0 Z " fill="#405452" transform="translate(63,76)"/>
<path d="M0 0 C0.66 0 1.32 0 2 0 C1.67 3.96 1.34 7.92 1 12 C4.96 12 8.92 12 13 12 C13 9.36 13 6.72 13 4 C13.33 4 13.66 4 14 4 C14.33 7.96 14.66 11.92 15 16 C14.67 15.34 14.34 14.68 14 14 C6.08 14.495 6.08 14.495 -2 15 C-1.67 14.01 -1.34 13.02 -1 12 C-0.77674186 9.94106379 -0.59294241 7.87766347 -0.4375 5.8125 C-0.35371094 4.72582031 -0.26992188 3.63914063 -0.18359375 2.51953125 C-0.12300781 1.68808594 -0.06242187 0.85664062 0 0 Z " fill="#68B8DD" transform="translate(43,32)"/>
<path d="M0 0 C0.33 0 0.66 0 1 0 C1.21657754 11.04545455 1.21657754 11.04545455 0 14 C-2.9375 15.875 -2.9375 15.875 -6 17 C-6.66 16.67 -7.32 16.34 -8 16 C-5.36 10.72 -2.72 5.44 0 0 Z " fill="#3A595E" transform="translate(37,23)"/>
<path d="M0 0 C0.33 0 0.66 0 1 0 C1.87557031 6.54311329 2.3548854 11.76647981 0 18 C-0.66 18 -1.32 18 -2 18 C-2 18.66 -2 19.32 -2 20 C-5.13349732 21.04449911 -5.98968256 20.93423645 -9 20 C-7.63016497 16.83884224 -7.0109362 16.0072908 -4 14 C-3.01 14 -2.02 14 -1 14 C-0.67 9.38 -0.34 4.76 0 0 Z " fill="#93ABB0" transform="translate(38,23)"/>
<path d="M0 0 C2.64 0.33 5.28 0.66 8 1 C8 1.99 8 2.98 8 4 C9.32 4.33 10.64 4.66 12 5 C12 5.66 12 6.32 12 7 C9.03 7 6.06 7 3 7 C2.67 6.01 2.34 5.02 2 4 C-0.97 3.505 -0.97 3.505 -4 3 C-2.68 2.67 -1.36 2.34 0 2 C0 1.34 0 0.68 0 0 Z " fill="#1D3236" transform="translate(8,72)"/>
<path d="M0 0 C10.55808656 -0.3690205 10.55808656 -0.3690205 15 2 C15 2.99 15 3.98 15 5 C9.5610835 5.21755666 5.12919186 5.10428384 0 3 C0 2.01 0 1.02 0 0 Z " fill="#B89E0D" transform="translate(18,71)"/>
<path d="M0 0 C1.65 0 3.3 0 5 0 C5 0.99 5 1.98 5 3 C7.31 3.33 9.62 3.66 12 4 C12 5.65 12 7.3 12 9 C8.65626525 8.44271087 5.96687001 7.64826111 3 6 C3 5.01 3 4.02 3 3 C2.01 2.67 1.02 2.34 0 2 C0 1.34 0 0.68 0 0 Z " fill="#305259" transform="translate(72,39)"/>
<path d="M0 0 C2.475 0.99 2.475 0.99 5 2 C5 5.63 5 9.26 5 13 C4.01 13.33 3.02 13.66 2 14 C1.34 9.38 0.68 4.76 0 0 Z " fill="#2E5155" transform="translate(59,15)"/>
<path d="M0 0 C1.32 0 2.64 0 4 0 C4.33 0.99 4.66 1.98 5 3 C1.14089246 6.62522223 -1.69268578 7.80343281 -7 8 C-7.99 7.34 -8.98 6.68 -10 6 C-6.7 4.68 -3.4 3.36 0 2 C0 1.34 0 0.68 0 0 Z " fill="#2A4D55" transform="translate(19,41)"/>
<path d="M0 0 C1.28132813 0.00902344 2.56265625 0.01804688 3.8828125 0.02734375 C4.87023438 0.03894531 5.85765625 0.05054688 6.875 0.0625 C6.875 0.3925 6.875 0.7225 6.875 1.0625 C5.93527344 1.15337891 5.93527344 1.15337891 4.9765625 1.24609375 C4.15929688 1.32988281 3.34203125 1.41367187 2.5 1.5 C1.68789063 1.58121094 0.87578125 1.66242187 0.0390625 1.74609375 C-2.16772805 1.95340114 -2.16772805 1.95340114 -4.125 3.0625 C-6.25 2.625 -6.25 2.625 -8.125 2.0625 C-8.125 4.0425 -8.125 6.0225 -8.125 8.0625 C-2.845 8.0625 2.435 8.0625 7.875 8.0625 C7.875 8.3925 7.875 8.7225 7.875 9.0625 C2.265 9.0625 -3.345 9.0625 -9.125 9.0625 C-9.125 6.4225 -9.125 3.7825 -9.125 1.0625 C-6.12186252 -0.43906874 -3.33432478 -0.03031204 0 0 Z " fill="#3F6E92" transform="translate(50.125,45.9375)"/>
<path d="M0 0 C4.29 0 8.58 0 13 0 C12.67 0.99 12.34 1.98 12 3 C8.37 3.33 4.74 3.66 1 4 C0.67 4.99 0.34 5.98 0 7 C-0.66 6.67 -1.32 6.34 -2 6 C-1.34 4.02 -0.68 2.04 0 0 Z " fill="#D9EAF2" transform="translate(43,14)"/>
<path d="M0 0 C3.40100748 4.53467664 3.33913116 5.7912782 3.1875 11.25 C3.16042969 12.51328125 3.13335937 13.7765625 3.10546875 15.078125 C3.07066406 16.04234375 3.03585937 17.0065625 3 18 C2.01 17.67 1.02 17.34 0 17 C0 11.39 0 5.78 0 0 Z " fill="#35B1E7" transform="translate(4,51)"/>
<path d="M0 0 C0.33 0 0.66 0 1 0 C1 6.27 1 12.54 1 19 C2.65 19.33 4.3 19.66 6 20 C6 21.32 6 22.64 6 24 C4.02 23.67 2.04 23.34 0 23 C0 15.41 0 7.82 0 0 Z " fill="#328AAD" transform="translate(91,49)"/>
<path d="M0 0 C0.33 0 0.66 0 1 0 C1.02721176 1.89575251 1.04649136 3.79161979 1.0625 5.6875 C1.07410156 6.74324219 1.08570313 7.79898437 1.09765625 8.88671875 C1.00865425 11.72410262 0.64939838 14.2438919 0 17 C-0.33 17 -0.66 17 -1 17 C-1 12.38 -1 7.76 -1 3 C-4.63 3 -8.26 3 -12 3 C-12 2.67 -12 2.34 -12 2 C-11.21753906 1.93941406 -10.43507812 1.87882812 -9.62890625 1.81640625 C-8.61699219 1.73261719 -7.60507812 1.64882813 -6.5625 1.5625 C-5.55316406 1.48128906 -4.54382812 1.40007813 -3.50390625 1.31640625 C-1.06359221 1.26788532 -1.06359221 1.26788532 0 0 Z " fill="#B9DFEE" transform="translate(56,15)"/>
<path d="M0 0 C1.32 0 2.64 0 4 0 C4 1.65 4 3.3 4 5 C0.09971775 7.60018816 -3.47434569 7.15085514 -8 7 C-8 6.67 -8 6.34 -8 6 C-5.69 6 -3.38 6 -1 6 C-1.020625 5.195625 -1.04125 4.39125 -1.0625 3.5625 C-1 1 -1 1 0 0 Z " fill="#A7C9D8" transform="translate(55,80)"/>
<path d="M0 0 C4.3177458 0.50797009 8.03302114 1.19682779 12 3 C11.67 3.66 11.34 4.32 11 5 C3.57142857 5.28571429 3.57142857 5.28571429 0 3 C0 2.01 0 1.02 0 0 Z " fill="#2B3F40" transform="translate(16,73)"/>
<path d="M0 0 C-0.33 0.99 -0.66 1.98 -1 3 C-5.0527516 3.98248524 -8.83861737 4.08159574 -13 4 C-9.21303116 -0.35501417 -5.55636855 -0.1262811 0 0 Z " fill="#C29F0A" transform="translate(82,70)"/>
<path d="M0 0 C2.35953094 2.35953094 2.49141413 3.77895617 3 7 C2.34 7 1.68 7 1 7 C1 6.01 1 5.02 1 4 C-2.96 4 -6.92 4 -11 4 C-11 3.34 -11 2.68 -11 2 C-10.28972656 1.93941406 -9.57945313 1.87882812 -8.84765625 1.81640625 C-7.46900391 1.69072266 -7.46900391 1.69072266 -6.0625 1.5625 C-5.14597656 1.48128906 -4.22945313 1.40007813 -3.28515625 1.31640625 C-1.03840268 1.23955024 -1.03840268 1.23955024 0 0 Z " fill="#CFD9C0" transform="translate(82,62)"/>
<path d="M0 0 C0.99 0.33 1.98 0.66 3 1 C3 4.3 3 7.6 3 11 C2.34 11 1.68 11 1 11 C0.67 11.66 0.34 12.32 0 13 C0 8.71 0 4.42 0 0 Z " fill="#BACBD9" transform="translate(86,55)"/>
<path d="M0 0 C0.33 0.99 0.66 1.98 1 3 C3.31 3 5.62 3 8 3 C8.33 4.32 8.66 5.64 9 7 C6.03 7 3.06 7 0 7 C0 4.69 0 2.38 0 0 Z " fill="#3F839E" transform="translate(0,40)"/>
<path d="M0 0 C0.33 1.32 0.66 2.64 1 4 C-2.63 4.33 -6.26 4.66 -10 5 C-10 4.01 -10 3.02 -10 2 C-8.7090864 1.66376204 -7.41723903 1.33110751 -6.125 1 C-5.40570313 0.814375 -4.68640625 0.62875 -3.9453125 0.4375 C-2 0 -2 0 0 0 Z " fill="#314235" transform="translate(78,75)"/>
<path d="M0 0 C2.31 0.33 4.62 0.66 7 1 C7 2.98 7 4.96 7 7 C5.35 7 3.7 7 2 7 C2 5.02 2 3.04 2 1 C1.34 0.67 0.68 0.34 0 0 Z " fill="#3186AA" transform="translate(1,67)"/>
<path d="M0 0 C1.90608098 3.21182149 2.22266247 5.53882603 2.125 9.25 C2.10695312 10.14203125 2.08890625 11.0340625 2.0703125 11.953125 C2.04710937 12.62859375 2.02390625 13.3040625 2 14 C1.01 14 0.02 14 -1 14 C-1.08333357 9.1666528 -0.95261487 4.76307437 0 0 Z " fill="#B2BEBA" transform="translate(60,25)"/>
<path d="M0 0 C1.65 0 3.3 0 5 0 C5 1.98 5 3.96 5 6 C3.35 5.67 1.7 5.34 0 5 C0 3.35 0 1.7 0 0 Z " fill="#E6C220" transform="translate(28,67)"/>
<path d="M0 0 C0.99 0.33 1.98 0.66 3 1 C2.67 2.32 2.34 3.64 2 5 C0.02 5.33 -1.96 5.66 -4 6 C-4.33 5.01 -4.66 4.02 -5 3 C-4.01 3 -3.02 3 -2 3 C-2 2.34 -2 1.68 -2 1 C-1.34 0.67 -0.68 0.34 0 0 Z " fill="#334C4E" transform="translate(61,82)"/>
<path d="M0 0 C0.66 0 1.32 0 2 0 C2.15886288 8.26086957 2.15886288 8.26086957 1 11 C0.01 11.33 -0.98 11.66 -2 12 C-2.26252625 7.66831683 -1.29243536 4.1196377 0 0 Z " fill="#59B9E0" transform="translate(56,69)"/>
<path d="M0 0 C2.475 0.99 2.475 0.99 5 2 C5 2.99 5 3.98 5 5 C2.36 4.67 -0.28 4.34 -3 4 C-2.01 2.68 -1.02 1.36 0 0 Z " fill="#8FA5AB" transform="translate(11,68)"/>
<path d="M0 0 C0.66 0 1.32 0 2 0 C1.88648483 1.81325551 1.75887039 3.62563357 1.625 5.4375 C1.55539063 6.44683594 1.48578125 7.45617188 1.4140625 8.49609375 C1.27742188 9.32238281 1.14078125 10.14867187 1 11 C0.01 11.495 0.01 11.495 -1 12 C-1.02712066 10.56260487 -1.04645067 9.12506137 -1.0625 7.6875 C-1.07410156 6.88699219 -1.08570312 6.08648437 -1.09765625 5.26171875 C-1 3 -1 3 0 0 Z " fill="#CCDBCF" transform="translate(82,51)"/>
<path d="M0 0 C2.475 0.99 2.475 0.99 5 2 C5 3.98 5 5.96 5 8 C4.67 7.34 4.34 6.68 4 6 C3.01 6 2.02 6 1 6 C0.67 4.02 0.34 2.04 0 0 Z " fill="#284A4E" transform="translate(59,15)"/>
<path d="M0 0 C0 0.99 0 1.98 0 3 C-2.97 3 -5.94 3 -9 3 C-9.33 2.34 -9.66 1.68 -10 1 C-6.56484998 0.37542727 -3.50935186 0 0 0 Z " fill="#A59B2F" transform="translate(33,73)"/>
<path d="M0 0 C0.99 0.33 1.98 0.66 3 1 C2.125 5.75 2.125 5.75 1 8 C0.34 8 -0.32 8 -1 8 C-1.04241723 5.66705225 -1.04092937 3.33297433 -1 1 C-0.67 0.67 -0.34 0.34 0 0 Z " fill="#1B414D" transform="translate(88,40)"/>
<path d="M0 0 C1.9375 0.6875 1.9375 0.6875 4 2 C4.75 4.625 4.75 4.625 5 7 C3.0625 6.3125 3.0625 6.3125 1 5 C0.25 2.375 0.25 2.375 0 0 Z " fill="#C6E7F2" transform="translate(39,76)"/>
<path d="M0 0 C2.475 0.99 2.475 0.99 5 2 C5 2.99 5 3.98 5 5 C4.01 5.495 4.01 5.495 3 6 C2.67 6.66 2.34 7.32 2 8 C2 6.35 2 4.7 2 3 C1.34 3 0.68 3 0 3 C0 2.01 0 1.02 0 0 Z " fill="#B7CED1" transform="translate(61,40)"/>
<path d="M0 0 C0.33 0 0.66 0 1 0 C1.25002209 1.74714233 1.47423194 3.49799141 1.6875 5.25 C1.87892578 6.71179688 1.87892578 6.71179688 2.07421875 8.203125 C2 11 2 11 -1 15 C-0.67 10.05 -0.34 5.1 0 0 Z " fill="#ABB9BA" transform="translate(38,23)"/>
<path d="M0 0 C0.33 0.99 0.66 1.98 1 3 C1.66 3 2.32 3 3 3 C3 4.65 3 6.3 3 8 C2.01 8.33 1.02 8.66 0 9 C0 6.03 0 3.06 0 0 Z " fill="#B1BDC2" transform="translate(59,74)"/>
<path d="M0 0 C0.33 1.98 0.66 3.96 1 6 C0.01 5.67 -0.98 5.34 -2 5 C-2 4.01 -2 3.02 -2 2 C-4.31 2 -6.62 2 -9 2 C-9 1.67 -9 1.34 -9 1 C-2.25 0 -2.25 0 0 0 Z " fill="#1A424A" transform="translate(10,41)"/>
<path d="M0 0 C0.99 0 1.98 0 3 0 C3 0.99 3 1.98 3 3 C0.04335481 4.4783226 -2.74229737 4.06032783 -6 4 C-6 3.67 -6 3.34 -6 3 C-4.35 3 -2.7 3 -1 3 C-0.67 2.01 -0.34 1.02 0 0 Z " fill="#5AA5C0" transform="translate(46,83)"/>
<path d="M0 0 C0.99 0 1.98 0 3 0 C3.33 1.65 3.66 3.3 4 5 C2.68 5 1.36 5 0 5 C0 3.35 0 1.7 0 0 Z " fill="#F2C010" transform="translate(67,68)"/>
<path d="M0 0 C0.66 0.33 1.32 0.66 2 1 C1.67 2.32 1.34 3.64 1 5 C-0.32 5 -1.64 5 -3 5 C-3 4.01 -3 3.02 -3 2 C-2.01 1.34 -1.02 0.68 0 0 Z " fill="#85ACBA" transform="translate(89,47)"/>
<path d="M0 0 C0.66 0 1.32 0 2 0 C3.35439668 2.70879335 3.06501451 5.00933268 3 8 C2.34 8 1.68 8 1 8 C0.67 5.36 0.34 2.72 0 0 Z " fill="#B6C5CA" transform="translate(57,16)"/>
<path d="M0 0 C1.65 0 3.3 0 5 0 C5 0.99 5 1.98 5 3 C3.02 3 1.04 3 -1 3 C-0.67 2.01 -0.34 1.02 0 0 Z " fill="#ADC1C9" transform="translate(40,83)"/>
<path d="M0 0 C2.3431213 0.25561323 4.67843403 0.59270772 7 1 C7.33 1.66 7.66 2.32 8 3 C5.36 3 2.72 3 0 3 C0 2.01 0 1.02 0 0 Z " fill="#3D442D" transform="translate(16,73)"/>
<path d="M0 0 C0.33 0 0.66 0 1 0 C1.33 2.97 1.66 5.94 2 9 C1.01 9.33 0.02 9.66 -1 10 C-0.67 6.7 -0.34 3.4 0 0 Z " fill="#C6C9B6" transform="translate(34,66)"/>
</svg>
